o Flap9
v -0.10347848422528 0 0.37073214739833432
v -0.28931318860218208 0 0.30699085813184579
v -0.27046590213213428 0 1.0093924884720764
v -0.27046590213213428 -0.01 1.0093924884720764
v -0.28931318860218208 -0.01 0.30699085813184579
v -0.10347848422528 -0.01 0.37073214739833432
vn 0 1 0
vn 0 -1 0
vn 0.00063741289266488533 0 -0.001858347043769021
vn -0.007024016303402306 0 0.00018847286470047796
vn 0.0063866034107374218 0 0.001669874179068543
vt 0.5010480254632198 0.67524680710229112
vt 0.57198164939849971 0.650916579564119
vt 0.56478758769108361 0.9190252370139711
g Flap9
f 1/1/1 2/2/1 3/3/1
f 4/3/2 5/2/2 6/1/2
f 2//3 1//3 6//3 5//3
f 3//4 2//4 5//4 4//4
f 1//5 3//5 4//5 6//5
