o Flap16
v -0.254899237197669 0 -0.2605560914471613
v -0.017677669529663691 0 -0.017677669529663688
v -0.12120528757067214 0 -0.40404800004529107
v -0.12120528757067214 -0.01 -0.40404800004529107
v -0.017677669529663691 -0.01 -0.017677669529663688
v -0.254899237197669 -0.01 -0.2605560914471613
vn 0 1 0
vn 0 -1 0
vn -0.0024287842191749761 0 0.0023722156766800531
vn 0.0038637033051562735 0 -0.0010352761804100846
vn -0.0014349190859812978 0 -0.0013369394962699686
vt 0.558845748355475 0.43428232913152681
vt 0.46829761566561934 0.52698969883438063
vt 0.50781439564306763 0.37951106820702324
g Flap16
f 1/1/1 2/2/1 3/3/1
f 4/3/2 5/2/2 6/1/2
f 2//3 1//3 6//3 5//3
f 3//4 2//4 5//4 4//4
f 1//5 3//5 4//5 6//5
