o Flap17
v -0.26932421553387459 0 -0.27498106978336689
v -0.12120528757067214 0 -0.40404800004529107
v -0.73892658633994224 0 -0.738926586339942
v -0.73892658633994224 -0.01 -0.738926586339942
v -0.12120528757067214 -0.01 -0.40404800004529107
v -0.26932421553387459 -0.01 -0.27498106978336689
vn 0 1 0
vn 0 -1 0
vn 0.0012906693026192417 0 0.0014811892796320245
vn 0.0033487858629465093 0 -0.0061772129876927007
vn -0.004639455165565751 0 0.0046960237080606766
vt 0.5643518027386204 0.42877627474838143
vt 0.50781439564306763 0.37951106820702324
vt 0.74360033482288768 0.25168697967711245
g Flap17
f 1/1/1 2/2/1 3/3/1
f 4/3/2 5/2/2 6/1/2
f 2//3 1//3 6//3 5//3
f 3//4 2//4 5//4 4//4
f 1//5 3//5 4//5 6//5
