o Flap10
v -0.095751077614967456 0 0.37280269975915453
v -0.27046590213213428 0 1.0093924884720764
v 0.097057141913445222 0 0.41051847617285409
v 0.097057141913445222 -0.01 0.41051847617285409
v -0.27046590213213428 -0.01 1.0093924884720764
v -0.095751077614967456 -0.01 0.37280269975915453
vn 0 1 0
vn 0 -1 0
vn -0.00636589788712922 0 -0.0017471482451716684
vn 0.0059887401229922234 0 0.0036752304404557949
vn 0.00037715776413699552 0 -0.0019280821952841268
vt 0.49809845285067267 0.67603714270184012
vt 0.56478758769108361 0.9190252370139711
vt 0.42450301877114233 0.69043335954156715
g Flap10
f 1/1/1 2/2/1 3/3/1
f 4/3/2 5/2/2 6/1/2
f 2//3 1//3 6//3 5//3
f 3//4 2//4 5//4 4//4
f 1//5 3//5 4//5 6//5
