o Flap21
v 0.10347848422528011 0 -0.37073214739833427
v 0.28931318860218214 0 -0.30699085813184573
v 0.27046590213213456 0 -1.0093924884720762
v 0.27046590213213456 -0.01 -1.0093924884720762
v 0.28931318860218214 -0.01 -0.30699085813184573
v 0.10347848422528011 -0.01 -0.37073214739833427
vn 0 1 0
vn 0 -1 0
vn -0.00063741289266488533 0 0.0018583470437690203
vn 0.0070240163034023051 0 -0.00018847286470047577
vn -0.0063866034107374191 0 -0.0016698741790685445
vt 0.42205197453678017 0.39222782189770877
vt 0.35111835060150032 0.416558049435881
vt 0.35831241230891636 0.14844939198602891
g Flap21
f 1/1/1 2/2/1 3/3/1
f 4/3/2 5/2/2 6/1/2
f 2//3 1//3 6//3 5//3
f 3//4 2//4 5//4 4//4
f 1//5 3//5 4//5 6//5
