o Flap6
v 0.27498106978336695 0 0.26932421553387453
v 0.73892658633994213 0 0.738926586339942
v 0.40404800004529107 0 0.121205287570672
v 0.40404800004529107 -0.01 0.121205287570672
v 0.73892658633994213 -0.01 0.738926586339942
v 0.27498106978336695 -0.01 0.26932421553387453
vn 0 1 0
vn 0 -1 0
vn -0.0046960237080606749 0 0.0046394551655657519
vn 0.0061772129876927 0 -0.0033487858629465106
vn -0.0014811892796320254 0 -0.0012906693026192412
vt 0.35658896024838149 0.63653911723862033
vt 0.17949966517711247 0.8157876493228875
vt 0.30732375370702331 0.58000171014306756
g Flap6
f 1/1/1 2/2/1 3/3/1
f 4/3/2 5/2/2 6/1/2
f 2//3 1//3 6//3 5//3
f 3//4 2//4 5//4 4//4
f 1//5 3//5 4//5 6//5
