o Flap12
v -0.35309781290285747 0 0.090471169094876083
v -0.024148145657226706 0 0.0064704761275630254
v -0.41051847617285414 0 -0.097057141913445139
v -0.41051847617285414 -0.01 -0.097057141913445139
v -0.024148145657226706 -0.01 0.0064704761275630254
v -0.35309781290285747 -0.01 0.090471169094876083
vn 0 1 0
vn 0 -1 0
vn 0.00084000692967313049 0 0.0032894966724563075
vn 0.0010352761804100815 0 -0.0038637033051562744
vn -0.0018752831100832125 0 0.00057420663269996681
vt 0.59632841803984493 0.56827041157182279
vt 0.47076741441420983 0.53620711324859049
vt 0.61824604504156722 0.49669033327114226
g Flap12
f 1/1/1 2/2/1 3/3/1
f 4/3/2 5/2/2 6/1/2
f 2//3 1//3 6//3 5//3
f 3//4 2//4 5//4 4//4
f 1//5 3//5 4//5 6//5
