o Flap3
v 0.35102726054203731 0 -0.098198575705188529
v 0.30699085813184579 0 -0.289313188602182
v 0.02414814565722671 0 -0.0064704761275630185
v 0.02414814565722671 -0.01 -0.0064704761275630185
v 0.30699085813184579 -0.01 -0.289313188602182
v 0.35102726054203731 -0.01 -0.098198575705188529
vn 0 1 0
vn 0 -1 0
vn 0.0019111461289699351 0 -0.00044036402410191523
vn -0.00282842712474619 0 -0.0028284271247461905
vn 0.0009172809957762551 0 0.0032687911488481058
vt 0.3275619175597041 0.49625464481563003
vt 0.34437073493588105 0.42330566510150031
vt 0.4523325855857902 0.5312675157514094
g Flap3
f 1/1/1 2/2/1 3/3/1
f 4/3/2 5/2/2 6/1/2
f 2//3 1//3 6//3 5//3
f 3//4 2//4 5//4 4//4
f 1//5 3//5 4//5 6//5
