o Flap1
v 0.37280269975915453 0 -0.095751077614967414
v 0.41051847617285409 0 0.097057141913445263
v 1.0093924884720764 0 -0.27046590213213417
v 1.0093924884720764 -0.01 -0.27046590213213417
v 0.41051847617285409 -0.01 0.097057141913445263
v 0.37280269975915453 -0.01 -0.095751077614967414
vn 0 1 0
vn 0 -1 0
vn -0.0019280821952841268 0 0.00037715776413699552
vn 0.0036752304404557945 0 0.0059887401229922234
vn -0.0017471482451716675 0 -0.00636589788712922
vt 0.31925017179815984 0.4971888616493273
vt 0.30485395495843282 0.57078429572885769
vt 0.076262077486028867 0.43049972680891641
g Flap1
f 1/1/1 2/2/1 3/3/1
f 4/3/2 5/2/2 6/1/2
f 2//3 1//3 6//3 5//3
f 3//4 2//4 5//4 4//4
f 1//5 3//5 4//5 6//5
