o Flap18
v -0.27498106978336695 0 -0.26932421553387453
v -0.73892658633994224 0 -0.738926586339942
v -0.40404800004529107 0 -0.12120528757067198
v -0.40404800004529107 -0.01 -0.12120528757067198
v -0.73892658633994224 -0.01 -0.738926586339942
v -0.27498106978336695 -0.01 -0.26932421553387453
vn 0 1 0
vn 0 -1 0
vn 0.0046960237080606749 0 -0.0046394551655657527
vn -0.0061772129876927007 0 0.0033487858629465119
vn 0.0014811892796320256 0 0.0012906693026192412
vt 0.56651103975161854 0.43093551176137962
vt 0.74360033482288768 0.25168697967711245
vt 0.61577624629297678 0.48747291885693239
g Flap18
f 1/1/1 2/2/1 3/3/1
f 4/3/2 5/2/2 6/1/2
f 2//3 1//3 6//3 5//3
f 3//4 2//4 5//4 4//4
f 1//5 3//5 4//5 6//5
