o Flap13
v -0.37280269975915448 0 0.095751077614967525
v -0.41051847617285414 0 -0.097057141913445139
v -1.0093924884720762 0 0.27046590213213445
v -1.0093924884720762 -0.01 0.27046590213213445
v -0.41051847617285414 -0.01 -0.097057141913445139
v -0.37280269975915448 -0.01 0.095751077614967525
vn 0 1 0
vn 0 -1 0
vn 0.0019280821952841266 0 -0.00037715776413699666
vn -0.0036752304404557958 0 -0.00598874012299222
vn 0.0017471482451716692 0 0.006365897887129217
vt 0.60384982820184008 0.5702857673506726
vt 0.61824604504156722 0.49669033327114226
vt 0.846837922513971 0.63697490219108355
g Flap13
f 1/1/1 2/2/1 3/3/1
f 4/3/2 5/2/2 6/1/2
f 2//3 1//3 6//3 5//3
f 3//4 2//4 5//4 4//4
f 1//5 3//5 4//5 6//5
