o Tmp1
v 0.028977774788672049 0 -0.0077645713530756222
v 0.025095489112134235 0 0.0067243160412604024
v 0.41146581962776163 0 0.11025193408226867
v 0.41534810530429939 0 0.095763046687932674
v 0.4233000537227799 0 0.10848179333804821
v 1.0028555494962208 0 -0.25386486980548084
v 0.99490360107774034 0 -0.26658361645559636
v 0.99543081709267023 0 -0.28157434836813489
v 0.31234770327822092 0 -0.30559801574023315
v 0.31182048726329109 0 -0.29060728382769463
v 0.30121388554549289 0 -0.30121388554549283
v 0.018371173070873836 0 -0.018371173070873836
v 0.021213203435596427 0 0.021213203435596423
v 0.0067243160412604006 0 0.025095489112134238
v 0.11025193408226877 0 0.41146581962776163
v 0.12474082147660479 0 0.40758353395122371
v 0.11770203798254675 0 0.42082949661626912
v 0.721281201128086 0 0.74156594728718928
v 0.728319984622144 0 0.72831998462214387
v 0.74156594728718939 0 0.72128120112808591
v 0.42082949661626912 0 0.11770203798254666
v 0.40758353395122371 0 0.1247408214766047
v 0.41146581962776163 0 0.11025193408226877
v 0.025095489112134238 0 0.0067243160412604006
v -0.0077645713530756257 0 0.028977774788672049
v -0.018371173070873839 0 0.018371173070873832
v -0.30121388554549289 0 0.30121388554549289
v -0.29060728382769468 0 0.31182048726329109
v -0.30559801574023315 0 0.31234770327822092
v -0.281574348368135 0 0.99543081709267023
v -0.26658361645559647 0 0.99490360107774034
v -0.25386486980548095 0 1.0028555494962208
v 0.10848179333804817 0 0.4233000537227799
v 0.095763046687932632 0 0.41534810530429939
v 0.11025193408226863 0 0.41146581962776163
v 0.0067243160412604 0 0.025095489112134238
v -0.028977774788672046 0 0.00776457135307563
v -0.025095489112134238 0 -0.0067243160412603946
v -0.41146581962776169 0 -0.11025193408226858
v -0.41534810530429939 0 -0.095763046687932549
v -0.4233000537227799 0 -0.10848179333804807
v -1.0028555494962208 0 0.25386486980548112
v -0.99490360107774023 0 0.26658361645559664
v -0.99543081709267012 0 0.28157434836813516
v -0.31234770327822081 0 0.30559801574023321
v -0.311820487263291 0 0.29060728382769468
v -0.30121388554549283 0 0.30121388554549294
v -0.018371173070873832 0 0.018371173070873839
v -0.02121320343559643 0 -0.021213203435596423
v -0.0067243160412604041 0 -0.025095489112134238
v -0.11025193408226883 0 -0.41146581962776163
v -0.12474082147660484 0 -0.40758353395122371
v -0.1177020379825468 0 -0.42082949661626912
v -0.72128120112808614 0 -0.74156594728718928
v -0.72831998462214409 0 -0.72831998462214387
v -0.7415659472871895 0 -0.72128120112808591
v -0.42082949661626917 0 -0.11770203798254664
v -0.40758353395122382 0 -0.12474082147660467
v -0.41146581962776163 0 -0.11025193408226874
v -0.025095489112134238 0 -0.0067243160412603989
v 0.0077645713530756335 0 -0.028977774788672046
v 0.018371173070873843 0 -0.018371173070873829
v 0.301213885545493 0 -0.30121388554549283
v 0.29060728382769474 0 -0.311820487263291
v 0.30559801574023326 0 -0.31234770327822081
v 0.28157434836813527 0 -0.99543081709267012
v 0.26658361645559675 0 -0.99490360107774023
v 0.25386486980548123 0 -1.0028555494962208
v -0.10848179333804803 0 -0.4233000537227799
v -0.095763046687932507 0 -0.41534810530429939
v -0.11025193408226854 0 -0.41146581962776169
v -0.006724316041260392 0 -0.025095489112134241
vn 0 1 0
g Tmp1
f 1//1 2//1 3//1 4//1 5//1 6//1 7//1 8//1 9//1 10//1 11//1 12//1
f 13//1 14//1 15//1 16//1 17//1 18//1 19//1 20//1 21//1 22//1 23//1 24//1
f 25//1 26//1 27//1 28//1 29//1 30//1 31//1 32//1 33//1 34//1 35//1 36//1
f 37//1 38//1 39//1 40//1 41//1 42//1 43//1 44//1 45//1 46//1 47//1 48//1
f 49//1 50//1 51//1 52//1 53//1 54//1 55//1 56//1 57//1 58//1 59//1 60//1
f 61//1 62//1 63//1 64//1 65//1 66//1 67//1 68//1 69//1 70//1 71//1 72//1
